<svg width="24" height="24" viewBox="0 0 24 24" fill="none" xmlns="http://www.w3.org/2000/svg">
<path fill-rule="evenodd" clip-rule="evenodd" d="M12 21C17.5228 21 22 16.5228 22 11V4.99966C22 3.89509 21.1046 3 20 3H4C2.89543 3 2 3.89337 2 4.99794V11C2 16.5228 6.47715 21 12 21ZM8.70711 9.29289C8.31658 8.90237 7.68342 8.90237 7.29289 9.29289C6.90237 9.68342 6.90237 10.3166 7.29289 10.7071L11.2929 14.7071C11.6834 15.0976 12.3166 15.0976 12.7071 14.7071L16.7071 10.7071C17.0976 10.3166 17.0976 9.68342 16.7071 9.29289C16.3166 8.90237 15.6834 8.90237 15.2929 9.29289L12 12.5858L8.70711 9.29289Z" fill="#1A1A1A"/>
</svg>
