<svg width="24" height="24" viewBox="0 0 24 24" fill="none" xmlns="http://www.w3.org/2000/svg">
<path fill-rule="evenodd" clip-rule="evenodd" d="M2 5C2 3.89543 2.89543 3 4 3H20C21.1046 3 22 3.89543 22 5H20H4H2ZM4 5H2V11C2 16.5228 6.47715 21 12 21C17.5228 21 22 16.5228 22 11V5H20V11C20 15.4183 16.4183 19 12 19C7.58172 19 4 15.4183 4 11V5Z" fill="#1A1A1A"/>
<path fill-rule="evenodd" clip-rule="evenodd" d="M7.29289 9.29289C7.68342 8.90237 8.31658 8.90237 8.70711 9.29289L12 12.5858L15.2929 9.29289C15.6834 8.90237 16.3166 8.90237 16.7071 9.29289C17.0976 9.68342 17.0976 10.3166 16.7071 10.7071L12.7071 14.7071C12.3166 15.0976 11.6834 15.0976 11.2929 14.7071L7.29289 10.7071C6.90237 10.3166 6.90237 9.68342 7.29289 9.29289Z" fill="#1A1A1A"/>
</svg>
