<svg width="24" height="24" viewBox="0 0 24 24" fill="none" xmlns="http://www.w3.org/2000/svg">
<path fill-rule="evenodd" clip-rule="evenodd" d="M10.6713 1.44119C11.429 0.7696 12.571 0.769604 13.3287 1.4412L21.3287 8.53137C21.7557 8.90979 22 9.45219 22 10.0218V19.9434C22 21.0447 21.1046 21.9375 20 21.9375H17C15.8954 21.9375 15 21.0447 15 19.9434V14.9581C15 14.6833 14.8248 13.8864 14.3113 13.1697C13.831 12.4993 13.1096 11.967 12 11.967C10.8904 11.967 10.169 12.4993 9.68873 13.1697C9.17524 13.8864 9 14.6833 9 14.9581V19.945C9 21.0485 8.1024 21.9375 7 21.9375H4C2.89543 21.9375 2 21.0447 2 19.9434V10.0218C2 9.45219 2.24429 8.90979 2.67127 8.53137L10.6713 1.44119ZM12 2.93161L4 10.0218V19.9434H7V14.9581C7 14.2359 7.32476 13.0387 8.06127 12.0106C8.83103 10.9361 10.1096 9.97286 12 9.97286C13.8904 9.97286 15.169 10.9361 15.9387 12.0106C16.6752 13.0387 17 14.2359 17 14.9581V19.9434H20V10.0218L12 2.93161ZM7 19.9434C7.00023 19.943 7.00037 19.943 7 19.9434C6.9994 19.9436 6.99949 19.9439 7 19.9434ZM7.0016 19.9433C7.00146 19.9433 7.00031 19.9434 7 19.9434L7.0016 19.9433ZM7.0016 19.9433C7.00175 19.9433 7.00184 19.9433 7.0016 19.9433V19.9433Z" fill="#1A1A1A"/>
</svg>
