<svg width="24" height="24" viewBox="0 0 24 24" fill="none" xmlns="http://www.w3.org/2000/svg">
<path fill-rule="evenodd" clip-rule="evenodd" d="M10.63 23H13.37L13.35 22.98C13.66 22.98 13.97 22.86 14.19 22.67C14.43 22.47 14.6 22.19 14.65 21.88L15.05 19.51C15.07 19.49 15.13 19.47 15.13 19.47L17.09 20.86C17.35 21.04 17.65 21.12 17.96 21.1C18.28 21.08 18.57 20.94 18.79 20.72L20.73 18.78C20.95 18.56 21.09 18.27 21.11 17.97C21.14 17.66 21.05 17.35 20.87 17.09L19.48 15.13C19.5 15.11 19.52 15.05 19.52 15.05L21.89 14.65C22.2 14.6 22.48 14.44 22.67 14.21C22.88 13.97 22.99 13.67 22.99 13.35V10.61C22.99 10.29 22.88 9.99 22.68 9.76C22.48 9.52 22.21 9.36 21.9 9.31L19.53 8.91L19.49 8.83L20.88 6.87C21.06 6.62 21.15 6.31 21.12 6.01C21.1 5.7 20.96 5.4 20.74 5.18L18.8 3.24C18.58 3.02 18.29 2.89 17.98 2.86C17.67 2.84 17.36 2.92 17.11 3.1L15.15 4.49C15.13 4.48 15.07 4.46 15.07 4.46L14.67 2.09C14.62 1.78 14.46 1.5 14.23 1.31C14 1.11 13.69 1 13.38 1H10.64C10.33 1 10.03 1.11 9.79002 1.31C9.55002 1.51 9.39002 1.79 9.34002 2.1L8.94002 4.47C8.92002 4.48 8.86002 4.5 8.86002 4.5L6.90002 3.11C6.64002 2.93 6.33002 2.84 6.02002 2.87C5.71002 2.9 5.42002 3.03 5.20002 3.25L3.26002 5.19C3.04002 5.41 2.91002 5.7 2.88002 6.01C2.85002 6.32 2.94002 6.63 3.12002 6.88L4.51002 8.84C4.50002 8.86 4.48002 8.92 4.48002 8.92L2.11002 9.32C1.81002 9.37 1.53002 9.53 1.33002 9.77C1.13002 10.01 1.02002 10.31 1.02002 10.62V13.36C1.02002 13.68 1.13002 13.98 1.33002 14.21C1.53002 14.45 1.81002 14.61 2.12002 14.66L4.49002 15.06C4.50002 15.08 4.52002 15.14 4.52002 15.14L3.13002 17.1C2.95002 17.36 2.86002 17.67 2.89002 17.98C2.92002 18.29 3.05002 18.58 3.27002 18.8L5.21002 20.74C5.43002 20.96 5.72002 21.1 6.02002 21.12C6.34002 21.14 6.64002 21.06 6.90002 20.88L8.86002 19.49L8.94002 19.53L9.34002 21.9C9.39002 22.21 9.55002 22.49 9.78002 22.68C10.01 22.89 10.32 23 10.63 23ZM12.79 21H11.2L10.8 18.63C10.74 18.27 10.47 17.96 10.12 17.85C9.80002 17.74 9.48002 17.61 9.19002 17.46C8.86002 17.29 8.45002 17.31 8.15002 17.53L6.19002 18.93L5.07002 17.81L6.47002 15.85C6.68002 15.54 6.71002 15.14 6.54002 14.81C6.39002 14.51 6.26002 14.2 6.16002 13.88C6.04002 13.53 5.74002 13.26 5.37002 13.2L3.00002 12.8V11.21L5.37002 10.81C5.74002 10.75 6.05002 10.49 6.16002 10.13C6.26002 9.81 6.39002 9.5 6.54002 9.2C6.71002 8.87 6.69002 8.47 6.47002 8.16L5.07002 6.2L6.19002 5.08L8.15002 6.48C8.46002 6.69 8.86002 6.72 9.19002 6.55C9.49002 6.4 9.80002 6.27 10.12 6.17C10.48 6.05 10.74 5.75 10.8 5.38L11.2 3.01H12.79L13.19 5.38C13.25 5.75 13.51 6.06 13.87 6.17C14.19 6.27 14.5 6.4 14.8 6.55C15.14 6.73 15.53 6.7 15.84 6.48L17.8 5.08L18.92 6.2L17.52 8.16C17.31 8.47 17.28 8.87 17.45 9.2C17.61 9.5 17.74 9.81 17.84 10.13C17.95 10.49 18.25 10.75 18.62 10.81L20.99 11.21V12.8L18.62 13.2C18.26 13.26 17.95 13.53 17.84 13.88C17.73 14.2 17.6 14.51 17.45 14.81C17.27 15.14 17.3 15.55 17.52 15.85L18.92 17.81L17.8 18.93L15.84 17.53C15.53 17.32 15.13 17.29 14.8 17.46C14.5 17.62 14.19 17.75 13.87 17.85C13.51 17.96 13.25 18.26 13.19 18.63L12.79 21ZM10 12C10 10.8954 10.8955 10 12 10C13.1046 10 14 10.8954 14 12C14 13.1046 13.1046 14 12 14C10.8955 14 10 13.1046 10 12ZM12 8C9.79089 8 8.00003 9.79086 8.00003 12C8.00003 14.2091 9.79089 16 12 16C14.2092 16 16 14.2091 16 12C16 9.79086 14.2092 8 12 8Z" fill="#1A1A1A"/>
</svg>
